HIERARCHY
ROOT Hips
{
	OFFSET 0.00000 0.00000 0.00000
	CHANNELS 6 Xposition Yposition Zposition Zrotation Yrotation Xrotation 
	JOINT LHipJoint
	{
		OFFSET 0 0 0
		CHANNELS 3 Zrotation Yrotation Xrotation
		JOINT LeftUpLeg
		{
			OFFSET 1.62964 -1.40469 0.78906
			CHANNELS 3 Zrotation Yrotation Xrotation
			JOINT LeftLeg
			{
				OFFSET 2.29640 -6.30932 0.00000
				CHANNELS 3 Zrotation Yrotation Xrotation
				JOINT LeftFoot
				{
					OFFSET 2.29451 -6.30412 0.00000
					CHANNELS 3 Zrotation Yrotation Xrotation
					JOINT LeftToeBase
					{
						OFFSET 0.03611 -0.09921 1.56387
						CHANNELS 3 Zrotation Yrotation Xrotation
						End Site
						{
							OFFSET 0.00000 -0.00000 0.80291
						}
					}
				}
			}
		}
	}
	JOINT RHipJoint
	{
		OFFSET 0 0 0
		CHANNELS 3 Zrotation Yrotation Xrotation
		JOINT RightUpLeg
		{
			OFFSET -1.73712 -1.40469 0.78906
			CHANNELS 3 Zrotation Yrotation Xrotation
			JOINT RightLeg
			{
				OFFSET -2.28137 -6.26801 0.00000
				CHANNELS 3 Zrotation Yrotation Xrotation
				JOINT RightFoot
				{
					OFFSET -2.28681 -6.28298 0.00000
					CHANNELS 3 Zrotation Yrotation Xrotation
					JOINT RightToeBase
					{
						OFFSET -0.15927 -0.43759 1.61103
						CHANNELS 3 Zrotation Yrotation Xrotation
						End Site
						{
							OFFSET -0.00000 -0.00000 0.84630
						}
					}
				}
			}
		}
	}
	JOINT LowerBack
	{
		OFFSET 0 0 0
		CHANNELS 3 Zrotation Yrotation Xrotation
		JOINT Spine
		{
			OFFSET -0.04227 2.04338 -0.00225
			CHANNELS 3 Zrotation Yrotation Xrotation
			JOINT Spine1
			{
				OFFSET -0.02148 2.04482 -0.04273
				CHANNELS 3 Zrotation Yrotation Xrotation
				JOINT Neck
				{
					OFFSET 0 0 0
					CHANNELS 3 Zrotation Yrotation Xrotation
					JOINT Neck1
					{
						OFFSET 0.09180 1.44629 0.19359
						CHANNELS 3 Zrotation Yrotation Xrotation
						JOINT Head
						{
							OFFSET 0.00887 1.40645 0.14750
							CHANNELS 3 Zrotation Yrotation Xrotation
							End Site
							{
								OFFSET -0.00669 1.50671 0.03707
							}
						}
					}
				}
				JOINT LeftShoulder
				{
					OFFSET 0 0 0
					CHANNELS 3 Zrotation Yrotation Xrotation
					JOINT LeftArm
					{
						OFFSET 2.17674 1.86763 -0.06520
						CHANNELS 3 Zrotation Yrotation Xrotation
						JOINT LeftForeArm
						{
							OFFSET 4.65776 -0.00000 0.00000
							CHANNELS 3 Zrotation Yrotation Xrotation
							JOINT LeftHand
							{
								OFFSET 3.55539 -0.00000 0.00000
								CHANNELS 3 Zrotation Yrotation Xrotation
								JOINT LeftFingerBase
								{
									OFFSET 0 0 0
									CHANNELS 3 Zrotation Yrotation Xrotation
									JOINT LeftHandIndex1
									{
										OFFSET 0.70726 -0.00000 0.00000
										CHANNELS 3 Zrotation Yrotation Xrotation
										End Site
										{
											OFFSET 0.57022 -0.00000 0.00000
										}
									}
								}
								JOINT LThumb
								{
									OFFSET 0 0 0
									CHANNELS 3 Zrotation Yrotation Xrotation
									End Site
									{
										OFFSET 0.57892 -0.00000 0.57892
									}
								}
							}
						}
					}
				}
				JOINT RightShoulder
				{
					OFFSET 0 0 0
					CHANNELS 3 Zrotation Yrotation Xrotation
					JOINT RightArm
					{
						OFFSET -2.80694 1.55459 -0.32496
						CHANNELS 3 Zrotation Yrotation Xrotation
						JOINT RightForeArm
						{
							OFFSET -4.71925 -0.00000 -0.00000
							CHANNELS 3 Zrotation Yrotation Xrotation
							JOINT RightHand
							{
								OFFSET -3.56990 -0.00000 0.00000
								CHANNELS 3 Zrotation Yrotation Xrotation
								JOINT RightFingerBase
								{
									OFFSET 0 0 0
									CHANNELS 3 Zrotation Yrotation Xrotation
									JOINT RightHandIndex1
									{
										OFFSET -0.50776 -0.00000 0.00000
										CHANNELS 3 Zrotation Yrotation Xrotation
										End Site
										{
											OFFSET -0.40937 -0.00000 0.00000
										}
									}
								}
								JOINT RThumb
								{
									OFFSET 0 0 0
									CHANNELS 3 Zrotation Yrotation Xrotation
									End Site
									{
										OFFSET -0.41562 -0.00000 0.41562
									}
								}
							}
						}
					}
				}
			}
		}
	}
}
MOTION
Frames: 6
Frame Time: .0083333
9.1047 12.4017 31.7116 180.8740 0.6605 -119.5090 0.0000 0.0000 0.0000 6.9041 -19.7753 -107.9672 19.8231 19.9992 89.4827 3.2343 -11.4965 -32.5015 2.6314 -10.0731 -29.2137 0.0000 0.0000 0.0000 -6.2817 27.2939 -104.4620 -17.9373 -19.8977 83.9591 -6.8986 3.4334 -49.5422 -3.5727 11.5690 -34.2238 -3.4879 -0.5975 -1.0293 -0.4960 -0.7354 -0.1275 1.4354 -0.3653 0.4842 2.1838 -7.3908 -2.9569 5.4565 -7.2399 -23.0609 1.5943 -3.0518 -6.4139 -0.0000 0.0000 0.0000 -81.6955 23.6681 29.4858 12.4705 -20.5065 -2.2644 -0.0000 -0.0000 1.9217 30.2188 -14.9855 -8.5648 -7.1250 0.0000 -0.0000 1.7681 12.7743 -1.3340 -0.0000 0.0000 0.0000 91.5069 -18.6471 7.5473 -9.5637 16.0542 -1.3518 0.0000 0.0000 7.8723 -11.9728 -50.8065 9.3332 7.1250 -0.0000 -0.0000 58.8770 -74.9207 -44.7759
9.1081 12.3320 31.6383 180.7780 0.6513 -119.6780 0.0000 0.0000 0.0000 6.8984 -19.9467 -107.9770 20.1894 19.9991 90.5537 3.2470 -11.8351 -32.5728 2.5778 -9.9780 -28.9054 0.0000 0.0000 0.0000 -6.1786 27.2867 -104.2923 -18.2457 -19.9261 84.8647 -7.0017 3.5154 -49.9200 -3.7224 11.7816 -34.9636 -3.6536 -0.6115 -0.5550 -0.5010 -0.7773 -0.3506 1.5292 -0.3748 -0.0062 2.3266 -7.7445 -2.2198 5.3859 -7.7995 -23.1078 1.6055 -3.3732 -6.5555 0.0000 -0.0000 0.0000 -81.6766 21.7202 29.1615 12.2742 -20.2145 -2.1961 -0.0000 -0.0000 3.0456 30.3698 -14.7047 -8.4605 -7.1250 0.0000 -0.0000 1.9004 13.0685 -1.4223 0.0000 -0.0000 0.0000 91.1904 -16.9018 9.5330 -9.6414 16.1766 -1.3733 0.0000 0.0000 6.7678 -13.1264 -50.1593 10.1514 7.1250 -0.0000 -0.0000 55.8917 -75.0714 -42.3620
9.1105 12.2677 31.5623 180.8290 0.6418 -119.7900 0.0000 0.0000 0.0000 6.9802 -19.9691 -107.9848 20.5524 19.9927 91.6154 3.2686 -12.1952 -32.6922 2.5136 -9.8626 -28.5330 0.0000 0.0000 0.0000 -6.0655 27.4315 -104.2469 -18.5040 -19.9463 85.6222 -6.9787 3.4824 -49.8387 -3.7192 11.7770 -34.9478 -3.7346 -0.6206 -0.4029 -0.4439 -0.7980 -0.4002 1.6350 -0.3823 -0.1394 2.0569 -6.9693 -2.7353 5.8186 -6.5228 -23.3618 1.7113 -2.7099 -6.5408 0.0000 0.0000 0.0000 -81.8763 19.2385 28.9048 12.0200 -19.8346 -2.1091 -0.0000 -0.0000 3.3677 31.2632 -14.6155 -8.7099 -7.1250 0.0000 -0.0000 2.5080 13.0265 -1.8800 0.0000 0.0000 0.0000 90.6806 -14.5687 11.9230 -9.6517 16.1929 -1.3762 0.0000 0.0000 5.6018 -13.3546 -50.2547 10.3445 7.1250 -0.0000 -0.0000 56.0563 -75.2036 -42.6355
9.1124 12.2133 31.4873 180.8780 0.6966 -119.7450 0.0000 0.0000 0.0000 7.0546 -19.9839 -108.0079 20.9028 19.9804 92.6403 3.3095 -12.6111 -32.9142 2.4746 -9.7916 -28.3043 0.0000 0.0000 0.0000 -5.9873 27.5606 -104.2975 -18.7430 -19.9621 86.3225 -7.0930 4.0746 -50.1690 -3.8892 12.0115 -35.7727 -3.8521 -0.6033 -0.4013 -0.4230 -0.7767 -0.5096 1.7230 -0.3675 -0.2519 2.0750 -7.1853 -2.7819 5.8218 -6.8553 -23.2194 1.7202 -2.8813 -6.4811 -0.0000 -0.0000 0.0000 -82.0481 16.5534 28.7547 11.7279 -19.3954 -2.0110 -0.0000 -0.0000 3.4603 32.3400 -14.5775 -9.0543 -7.1250 0.0000 -0.0000 3.2311 12.8914 -2.4328 -0.0000 -0.0000 0.0000 90.2876 -11.8270 13.5317 -9.4309 15.8445 -1.3153 0.0000 0.0000 5.4073 -12.8349 -50.4592 9.9651 7.1250 -0.0000 -0.0000 57.1155 -75.0975 -43.4368
9.1131 12.1650 31.4160 180.9520 0.7981 -119.4800 0.0000 0.0000 0.0000 7.1881 -19.9483 -108.2018 21.2210 19.9642 93.5720 3.3406 -13.0227 -33.0885 2.4925 -9.8242 -28.4094 0.0000 0.0000 0.0000 -6.1722 27.7443 -104.7192 -19.1940 -19.9844 87.6429 -7.1826 3.4243 -50.6188 -4.1439 12.3494 -36.9796 -3.9288 -0.5594 -0.6825 -0.4916 -0.7049 -0.6943 1.6941 -0.3264 -0.2878 2.5572 -7.2039 -2.8166 5.5583 -6.8283 -23.6203 1.5625 -2.8592 -6.6413 -0.0000 -0.0000 0.0000 -81.9875 13.7850 28.5854 11.4718 -19.0078 -1.9268 -0.0000 -0.0000 4.0439 33.1577 -14.5085 -9.2954 -7.1250 0.0000 -0.0000 3.7843 12.8308 -2.8558 -0.0000 -0.0000 0.0000 90.1636 -8.8693 14.4702 -9.0819 15.2909 -1.2216 0.0000 0.0000 6.1940 -12.9835 -51.3974 10.2142 7.1250 -0.0000 -0.0000 60.3310 -75.5527 -46.7026
9.1118 12.1210 31.3387 181.0670 0.9087 -119.3100 0.0000 0.0000 0.0000 7.3281 -19.9158 -108.2558 21.4888 19.9468 94.3567 3.3693 -13.5063 -33.2566 2.4464 -9.7398 -28.1383 0.0000 0.0000 0.0000 -6.2303 27.9342 -104.8697 -19.5150 -19.9944 88.5817 -7.2925 4.1852 -50.9005 -4.1570 12.3665 -37.0411 -3.9283 -0.5137 -1.0309 -0.5603 -0.6266 -0.8484 1.6214 -0.2839 -0.2558 2.6208 -6.4462 -3.6091 5.6043 -5.6525 -23.6041 1.4853 -2.2391 -6.5218 -0.0000 -0.0000 0.0000 -81.9623 10.8867 28.0937 11.1885 -18.5767 -1.8355 -0.0000 -0.0000 5.0799 34.1065 -14.8417 -9.8411 -7.1250 0.0000 -0.0000 4.3684 12.2722 -3.3500 -0.0000 -0.0000 0.0000 90.1268 -5.7699 14.6341 -8.8145 14.8643 -1.1521 0.0000 0.0000 7.2237 -12.4980 -51.8775 9.8916 7.1250 -0.0000 -0.0000 62.3606 -75.5488 -48.4946
